<?xml version="1.0" encoding="UTF-8"?>
<svg xmlns="http://www.w3.org/2000/svg" xmlns:xlink="http://www.w3.org/1999/xlink" viewBox="0 0 48 48" width="48px" height="48px">
<g id="surface107838449">
<path style="fill-rule:evenodd;fill:rgb(0%,0%,0%);fill-opacity:1;stroke-width:10;stroke-linecap:butt;stroke-linejoin:round;stroke:rgb(80.000001%,80.000001%,80.000001%);stroke-opacity:1;stroke-miterlimit:10;" d="M 161.47004 153.862114 C 163.000541 155.407474 163.461177 157.710655 162.62906 159.716651 C 161.796944 161.737507 159.835525 163.045119 157.666077 163.045119 L 14.333928 163.045119 C 11.362082 163.045119 8.954886 160.637923 8.954886 157.666077 L 8.954886 14.333928 C 8.954886 12.16448 10.262499 10.203062 12.283354 9.370945 C 14.289351 8.538828 16.592531 8.999464 18.137892 10.529965 Z M 161.47004 153.862114 " transform="matrix(0.262884,0,0,0.262884,1.392,1.392)"/>
<path style=" stroke:none;fill-rule:evenodd;fill:rgb(100%,100%,100%);fill-opacity:1;" d="M 6.160156 4.160156 C 5.753906 3.757812 5.148438 3.636719 4.621094 3.855469 C 4.089844 4.074219 3.746094 4.589844 3.746094 5.160156 L 3.746094 42.839844 C 3.746094 43.621094 4.378906 44.253906 5.160156 44.253906 L 42.839844 44.253906 C 43.410156 44.253906 43.925781 43.910156 44.144531 43.378906 C 44.363281 42.851562 44.242188 42.246094 43.839844 41.839844 Z M 6.160156 4.160156 "/>
</g>
</svg>
